<svg width="148" height="40" viewBox="0 0 148 40" fill="none" xmlns="http://www.w3.org/2000/svg">
<rect width="148" height="40" rx="20" fill="#2F3030"/>
<path d="M34.158 22.209C34.3053 22.209 34.4187 22.277 34.498 22.413C34.5887 22.549 34.634 22.736 34.634 22.974C34.634 23.416 34.5263 23.7673 34.311 24.028C33.6763 24.7873 33.0587 25.32 32.458 25.626C31.8687 25.932 31.1547 26.085 30.316 26.085C29.7267 26.085 29.1827 26.0113 28.684 25.864C28.1853 25.7167 27.579 25.4957 26.865 25.201C26.219 24.9177 25.5957 24.6853 24.995 24.504C24.417 25.558 23.55 26.085 22.394 26.085C21.7593 26.085 21.255 25.9433 20.881 25.66C20.4957 25.3653 20.303 24.9913 20.303 24.538C20.303 23.9827 20.5693 23.5237 21.102 23.161C21.6347 22.787 22.343 22.6 23.227 22.6H23.448L23.754 17.653C23.822 16.5197 24.026 15.5847 24.366 14.848C24.706 14.1113 25.1763 13.4823 25.777 12.961C26.2983 12.5077 26.8933 12.1677 27.562 11.941C28.2307 11.703 28.939 11.584 29.687 11.584C30.911 11.584 31.8517 11.9013 32.509 12.536C33.1663 13.1707 33.495 13.998 33.495 15.018C33.495 15.7093 33.3703 16.2703 33.121 16.701C32.8717 17.1203 32.526 17.33 32.084 17.33C31.7667 17.33 31.5173 17.2563 31.336 17.109C31.1547 16.9503 31.064 16.7293 31.064 16.446C31.064 16.344 31.0867 16.157 31.132 15.885C31.2 15.5677 31.234 15.2843 31.234 15.035C31.234 14.559 31.0923 14.185 30.809 13.913C30.537 13.6297 30.1177 13.488 29.551 13.488C28.5537 13.488 27.783 13.8167 27.239 14.474C26.695 15.12 26.3493 16.14 26.202 17.534L25.811 21.393C25.7543 21.937 25.6807 22.4073 25.59 22.804C26.3153 22.9287 27.222 23.127 28.31 23.399C28.9447 23.5577 29.432 23.671 29.772 23.739C30.112 23.807 30.4123 23.841 30.673 23.841C31.3303 23.841 31.8913 23.7333 32.356 23.518C32.832 23.2913 33.2797 22.9343 33.699 22.447C33.835 22.2883 33.988 22.209 34.158 22.209ZM35.4815 16.956C35.0055 16.956 34.6485 16.8483 34.4105 16.633C34.1725 16.4063 34.0535 16.0947 34.0535 15.698C34.0535 15.3013 34.2065 14.9727 34.5125 14.712C34.8298 14.44 35.2208 14.304 35.6855 14.304C36.1048 14.304 36.4448 14.406 36.7055 14.61C36.9661 14.814 37.0965 15.103 37.0965 15.477C37.0965 15.9303 36.9491 16.293 36.6545 16.565C36.3598 16.8257 35.9688 16.956 35.4815 16.956ZM35.3455 26.085C34.6088 26.085 34.0705 25.8243 33.7305 25.303C33.4018 24.7817 33.2375 24.0903 33.2375 23.229C33.2375 22.719 33.2998 22.0673 33.4245 21.274C33.5605 20.4693 33.7305 19.7213 33.9345 19.03C34.0365 18.6673 34.1725 18.418 34.3425 18.282C34.5125 18.146 34.7845 18.078 35.1585 18.078C35.7365 18.078 36.0255 18.2707 36.0255 18.656C36.0255 18.9393 35.9178 19.5967 35.7025 20.628C35.4305 21.8747 35.2945 22.719 35.2945 23.161C35.2945 23.501 35.3398 23.7617 35.4305 23.943C35.5211 24.1243 35.6741 24.215 35.8895 24.215C36.0935 24.215 36.3485 24.0733 36.6545 23.79C36.9605 23.5067 37.3685 23.059 37.8785 22.447C38.0145 22.2883 38.1675 22.209 38.3375 22.209C38.4848 22.209 38.5981 22.277 38.6775 22.413C38.7681 22.549 38.8135 22.736 38.8135 22.974C38.8135 23.4273 38.7058 23.7787 38.4905 24.028C37.3685 25.3993 36.3201 26.085 35.3455 26.085ZM40.6851 26.085C39.5744 26.085 38.7074 25.7733 38.0841 25.15C37.4721 24.5153 37.1661 23.6823 37.1661 22.651C37.1661 21.733 37.3474 20.9283 37.7101 20.237C38.0727 19.5457 38.5431 19.013 39.1211 18.639C39.6991 18.265 40.3054 18.078 40.9401 18.078C41.5634 18.078 42.0451 18.265 42.3851 18.639C42.7364 19.0017 42.9121 19.472 42.9121 20.05C42.9121 20.526 42.8044 20.9283 42.5891 21.257C42.3851 21.5857 42.1131 21.75 41.7731 21.75C41.5577 21.75 41.3821 21.699 41.2461 21.597C41.1214 21.495 41.0591 21.3533 41.0591 21.172C41.0591 21.0927 41.0704 21.002 41.0931 20.9C41.1157 20.798 41.1327 20.7243 41.1441 20.679C41.2007 20.509 41.2291 20.3503 41.2291 20.203C41.2291 20.0557 41.1894 19.9423 41.1101 19.863C41.0421 19.7837 40.9401 19.744 40.8041 19.744C40.5434 19.744 40.2997 19.863 40.0731 20.101C39.8464 20.3277 39.6651 20.6393 39.5291 21.036C39.3931 21.4327 39.3251 21.869 39.3251 22.345C39.3251 23.6597 39.8974 24.317 41.0421 24.317C41.5067 24.317 42.0054 24.164 42.5381 23.858C43.0821 23.5407 43.6147 23.0703 44.1361 22.447C44.2721 22.2883 44.4251 22.209 44.5951 22.209C44.7424 22.209 44.8557 22.277 44.9351 22.413C45.0257 22.549 45.0711 22.736 45.0711 22.974C45.0711 23.4047 44.9634 23.756 44.7481 24.028C44.2154 24.6853 43.5751 25.1953 42.8271 25.558C42.0904 25.9093 41.3764 26.085 40.6851 26.085ZM51.2789 22.209C51.4262 22.209 51.5395 22.277 51.6189 22.413C51.7095 22.549 51.7549 22.736 51.7549 22.974C51.7549 23.4273 51.6472 23.7787 51.4319 24.028C51.0125 24.538 50.4175 25.0083 49.6469 25.439C48.8875 25.8697 48.0715 26.085 47.1989 26.085C46.0089 26.085 45.0852 25.762 44.4279 25.116C43.7705 24.47 43.4419 23.586 43.4419 22.464C43.4419 21.682 43.6062 20.9567 43.9349 20.288C44.2635 19.608 44.7169 19.0697 45.2949 18.673C45.8842 18.2763 46.5472 18.078 47.2839 18.078C47.9412 18.078 48.4682 18.2763 48.8649 18.673C49.2615 19.0583 49.4599 19.5853 49.4599 20.254C49.4599 21.036 49.1765 21.7103 48.6099 22.277C48.0545 22.8323 47.1082 23.2743 45.7709 23.603C46.0542 24.1243 46.5925 24.385 47.3859 24.385C47.8959 24.385 48.4739 24.2093 49.1199 23.858C49.7772 23.4953 50.3439 23.025 50.8199 22.447C50.9559 22.2883 51.1089 22.209 51.2789 22.209ZM46.9949 19.744C46.5755 19.744 46.2185 19.9877 45.9239 20.475C45.6405 20.9623 45.4989 21.5517 45.4989 22.243V22.277C46.1675 22.1183 46.6945 21.8803 47.0799 21.563C47.4652 21.2457 47.6579 20.8773 47.6579 20.458C47.6579 20.2427 47.5955 20.0727 47.4709 19.948C47.3575 19.812 47.1989 19.744 46.9949 19.744ZM51.5777 26.085C51.147 26.085 50.841 25.8583 50.6597 25.405C50.4897 24.9517 50.4047 24.2263 50.4047 23.229C50.4047 21.7557 50.6144 20.356 51.0337 19.03C51.1357 18.7013 51.3 18.4633 51.5267 18.316C51.7647 18.1573 52.0934 18.078 52.5127 18.078C52.7394 18.078 52.898 18.1063 52.9887 18.163C53.0794 18.2197 53.1247 18.3273 53.1247 18.486C53.1247 18.6673 53.0397 19.0753 52.8697 19.71C52.7564 20.1633 52.6657 20.56 52.5977 20.9C52.5297 21.24 52.473 21.6593 52.4277 22.158C52.8017 21.1833 53.221 20.39 53.6857 19.778C54.1504 19.166 54.6037 18.7297 55.0457 18.469C55.499 18.2083 55.9127 18.078 56.2867 18.078C57.0234 18.078 57.3917 18.4463 57.3917 19.183C57.3917 19.625 57.267 20.424 57.0177 21.58C56.8024 22.566 56.6947 23.2177 56.6947 23.535C56.6947 23.9883 56.859 24.215 57.1877 24.215C57.4144 24.215 57.6807 24.079 57.9867 23.807C58.304 23.5237 58.7234 23.0703 59.2447 22.447C59.3807 22.2883 59.5337 22.209 59.7037 22.209C59.851 22.209 59.9644 22.277 60.0437 22.413C60.1344 22.549 60.1797 22.736 60.1797 22.974C60.1797 23.4273 60.072 23.7787 59.8567 24.028C59.3694 24.6287 58.8424 25.1217 58.2757 25.507C57.7204 25.8923 57.0857 26.085 56.3717 26.085C55.7937 26.085 55.3574 25.9207 55.0627 25.592C54.768 25.252 54.6207 24.7647 54.6207 24.13C54.6207 23.8127 54.7 23.246 54.8587 22.43C55.006 21.716 55.0797 21.223 55.0797 20.951C55.0797 20.7697 55.0174 20.679 54.8927 20.679C54.7454 20.679 54.5357 20.8717 54.2637 21.257C54.003 21.631 53.731 22.1297 53.4477 22.753C53.1757 23.3763 52.9547 24.0337 52.7847 24.725C52.66 25.2577 52.5127 25.6203 52.3427 25.813C52.184 25.9943 51.929 26.085 51.5777 26.085ZM62.0513 26.085C60.9406 26.085 60.0736 25.7733 59.4503 25.15C58.8383 24.5153 58.5323 23.6823 58.5323 22.651C58.5323 21.733 58.7136 20.9283 59.0763 20.237C59.4389 19.5457 59.9093 19.013 60.4873 18.639C61.0653 18.265 61.6716 18.078 62.3063 18.078C62.9296 18.078 63.4113 18.265 63.7513 18.639C64.1026 19.0017 64.2783 19.472 64.2783 20.05C64.2783 20.526 64.1706 20.9283 63.9553 21.257C63.7513 21.5857 63.4793 21.75 63.1393 21.75C62.9239 21.75 62.7483 21.699 62.6123 21.597C62.4876 21.495 62.4253 21.3533 62.4253 21.172C62.4253 21.0927 62.4366 21.002 62.4593 20.9C62.4819 20.798 62.4989 20.7243 62.5103 20.679C62.5669 20.509 62.5953 20.3503 62.5953 20.203C62.5953 20.0557 62.5556 19.9423 62.4763 19.863C62.4083 19.7837 62.3063 19.744 62.1703 19.744C61.9096 19.744 61.6659 19.863 61.4393 20.101C61.2126 20.3277 61.0313 20.6393 60.8953 21.036C60.7593 21.4327 60.6913 21.869 60.6913 22.345C60.6913 23.6597 61.2636 24.317 62.4083 24.317C62.8729 24.317 63.3716 24.164 63.9043 23.858C64.4483 23.5407 64.9809 23.0703 65.5023 22.447C65.6383 22.2883 65.7913 22.209 65.9613 22.209C66.1086 22.209 66.2219 22.277 66.3013 22.413C66.3919 22.549 66.4373 22.736 66.4373 22.974C66.4373 23.4047 66.3296 23.756 66.1143 24.028C65.5816 24.6853 64.9413 25.1953 64.1933 25.558C63.4566 25.9093 62.7426 26.085 62.0513 26.085ZM71.1491 22.719C71.2964 22.719 71.4097 22.787 71.4891 22.923C71.5797 23.059 71.6251 23.246 71.6251 23.484C71.6251 23.892 71.5287 24.2433 71.3361 24.538C71.0187 25.0253 70.5994 25.405 70.0781 25.677C69.5681 25.949 68.9561 26.085 68.2421 26.085C67.1541 26.085 66.3097 25.762 65.7091 25.116C65.1084 24.4587 64.8081 23.5747 64.8081 22.464C64.8081 21.682 64.9724 20.9567 65.3011 20.288C65.6297 19.608 66.0831 19.0697 66.6611 18.673C67.2504 18.2763 67.9134 18.078 68.6501 18.078C69.3074 18.078 69.8344 18.2763 70.2311 18.673C70.6277 19.0583 70.8261 19.5853 70.8261 20.254C70.8261 21.036 70.5427 21.7103 69.9761 22.277C69.4207 22.8323 68.4687 23.2743 67.1201 23.603C67.3921 24.1243 67.8511 24.385 68.4971 24.385C68.9617 24.385 69.3414 24.2773 69.6361 24.062C69.9421 23.8467 70.2934 23.484 70.6901 22.974C70.8261 22.804 70.9791 22.719 71.1491 22.719ZM68.3611 19.744C67.9417 19.744 67.5847 19.9877 67.2901 20.475C67.0067 20.9623 66.8651 21.5517 66.8651 22.243V22.277C67.5337 22.1183 68.0607 21.8803 68.4461 21.563C68.8314 21.2457 69.0241 20.8773 69.0241 20.458C69.0241 20.2427 68.9617 20.0727 68.8371 19.948C68.7237 19.812 68.5651 19.744 68.3611 19.744Z" fill="white"/>
<path d="M89 0H128C139.046 0 148 8.95431 148 20V20C148 31.0457 139.046 40 128 40H89V0Z" fill="#66DA8D"/>
<path d="M109.942 26H106.712C106.742 24.7988 106.756 23.5757 106.756 22.3306C106.756 21.0854 106.695 19.6719 106.573 18.0898C106.739 17.7432 106.971 17.2158 107.269 16.5078C107.303 16.4297 107.391 16.332 107.533 16.2148C107.674 16.0928 107.799 16.0317 107.906 16.0317H110.147C110.113 16.6763 110.096 17.3916 110.096 18.1777C110.096 20.6387 110.26 23.085 110.587 25.5166C110.587 25.5801 110.509 25.6777 110.353 25.8096C110.196 25.9365 110.06 26 109.942 26ZM104.918 25.6191C104.884 25.6924 104.808 25.7754 104.691 25.8682C104.574 25.9561 104.481 26 104.413 26H103.248C103.043 24.7842 102.777 23.5049 102.45 22.1621C102.123 20.8193 101.798 19.7134 101.476 18.8442C101.495 18.7319 101.559 18.3901 101.666 17.8188C101.778 17.2427 101.856 16.8057 101.9 16.5078C101.915 16.4395 101.998 16.3442 102.149 16.2222C102.301 16.0952 102.43 16.0317 102.538 16.0317H104.669C105.006 17.9849 105.284 19.3057 105.504 19.9941C105.729 20.6777 105.934 21.2246 106.119 21.6348C105.65 23.0361 105.25 24.3643 104.918 25.6191ZM101.314 20.7046C101.339 21.9253 101.383 22.8579 101.446 23.5024C101.515 24.147 101.659 24.8184 101.878 25.5166C101.878 25.5801 101.798 25.6777 101.637 25.8096C101.48 25.9365 101.344 26 101.227 26H98.8901C99.3735 24.8477 99.752 23.915 100.025 23.2021C100.299 22.4844 100.516 21.8105 100.677 21.1807C100.677 21.1172 100.755 21.022 100.912 20.895C101.068 20.7681 101.202 20.7046 101.314 20.7046ZM115.428 26H112.022C112.696 23.085 113.172 19.9209 113.451 16.5078C113.451 16.4443 113.529 16.3491 113.685 16.2222C113.846 16.0952 113.983 16.0317 114.095 16.0317H117.501C116.822 18.9224 116.344 22.084 116.065 25.5166C116.065 25.5801 115.987 25.6777 115.831 25.8096C115.675 25.9365 115.541 26 115.428 26ZM124.078 26H120.665C121.383 23.4072 121.893 20.2432 122.196 16.5078C122.196 16.4443 122.274 16.3491 122.43 16.2222C122.591 16.0952 122.726 16.0317 122.833 16.0317H126.1C125.47 18.6831 125.011 21.8447 124.723 25.5166C124.723 25.5801 124.645 25.6777 124.488 25.8096C124.332 25.9365 124.195 26 124.078 26ZM127.506 20.6167C127.506 19.9478 127.398 19.2056 127.184 18.3901C126.974 17.5747 126.747 16.9839 126.502 16.6177C126.532 16.3931 126.605 16.1978 126.722 16.0317H129C128.844 17.5015 128.636 18.8687 128.377 20.1333C128.358 20.2065 128.238 20.3066 128.019 20.4336C127.804 20.5557 127.633 20.6167 127.506 20.6167ZM118.585 20.6094C118.624 20.0381 118.717 19.2886 118.863 18.3608C119.01 17.4282 119.12 16.8252 119.193 16.5518C119.227 16.4541 119.31 16.3442 119.442 16.2222C119.579 16.0952 119.691 16.0317 119.779 16.0317H122.005C121.507 16.6274 121.124 17.1768 120.855 17.6797C120.592 18.1826 120.335 18.6709 120.086 19.1445C119.842 19.6133 119.654 19.9697 119.522 20.2139C119.493 20.2676 119.356 20.3481 119.112 20.4556C118.873 20.5581 118.697 20.6094 118.585 20.6094Z" fill="white"/>
</svg>
