<svg width="801" height="389" viewBox="0 0 801 389" fill="none" xmlns="http://www.w3.org/2000/svg">
<path d="M430 249.8C422.64 249.8 415.973 247.987 410 244.36C404.133 240.733 399.493 235.507 396.08 228.68C392.667 221.747 390.96 213.587 390.96 204.2C390.96 187.987 394.427 173 401.36 159.24C408.293 145.373 418.533 134.28 432.08 125.96C445.627 117.533 461.893 113.32 480.88 113.32C485.787 113.32 491.013 113.693 496.56 114.44C502.213 115.187 507.333 116.307 511.92 117.8C514.907 118.653 516.4 120.787 516.4 124.2C516.4 126.973 515.333 129.587 513.2 132.04C511.173 134.493 508.773 135.72 506 135.72C505.147 135.72 504.507 135.667 504.08 135.56C498.533 134.28 493.787 133.373 489.84 132.84C485.893 132.2 481.733 131.88 477.36 131.88C463.813 131.88 452.293 135.187 442.8 141.8C433.307 148.307 426.213 156.947 421.52 167.72C416.827 178.493 414.48 190.12 414.48 202.6C414.48 211.667 416.24 218.707 419.76 223.72C423.387 228.627 428.08 231.08 433.84 231.08C440.347 231.08 446.053 228.413 450.96 223.08C455.867 217.747 460.347 209.107 464.4 197.16C468.453 185.213 472.453 169 476.4 148.52C477.04 145.533 478.32 143.507 480.24 142.44C482.16 141.373 484.72 140.84 487.92 140.84C495.493 140.84 499.28 143.293 499.28 148.2C499.28 149.053 499.12 150.12 498.8 151.4C496.027 161.747 493.467 173.213 491.12 185.8C488.88 198.28 487.76 207.773 487.76 214.28C487.76 220.04 488.613 224.253 490.32 226.92C492.027 229.48 494.64 230.76 498.16 230.76C501.573 230.76 504.827 229.64 507.92 227.4C511.013 225.053 514.907 221.107 519.6 215.56C520.88 214.067 522.32 213.32 523.92 213.32C525.307 213.32 526.373 213.96 527.12 215.24C527.973 216.52 528.4 218.28 528.4 220.52C528.4 224.68 527.387 227.987 525.36 230.44C520.133 236.733 515.013 241.533 510 244.84C504.987 248.147 498.853 249.8 491.6 249.8C484.133 249.8 478.107 247.667 473.52 243.4C468.933 239.027 466.053 232.893 464.88 225C456.987 241.533 445.36 249.8 430 249.8ZM576.101 213.32C577.488 213.32 578.555 213.96 579.301 215.24C580.155 216.52 580.581 218.28 580.581 220.52C580.581 224.787 579.568 228.093 577.541 230.44C572.955 236.093 567.941 240.733 562.501 244.36C557.168 247.987 551.088 249.8 544.261 249.8C534.875 249.8 527.888 245.533 523.301 237C518.821 228.467 516.581 217.427 516.581 203.88C516.581 190.867 518.235 176.04 521.541 159.4C524.955 142.76 529.915 128.467 536.421 116.52C543.035 104.573 550.875 98.6 559.941 98.6C565.061 98.6 569.061 101 571.941 105.8C574.928 110.493 576.421 117.267 576.421 126.12C576.421 138.813 572.901 153.533 565.861 170.28C558.821 187.027 549.275 203.613 537.221 220.04C537.968 224.413 539.195 227.56 540.901 229.48C542.608 231.293 544.848 232.2 547.621 232.2C551.995 232.2 555.835 230.973 559.141 228.52C562.448 225.96 566.661 221.64 571.781 215.56C573.061 214.067 574.501 213.32 576.101 213.32ZM556.421 114.44C553.968 114.44 551.195 118.867 548.101 127.72C545.008 136.573 542.288 147.56 539.941 160.68C537.595 173.8 536.315 186.387 536.101 198.44C543.675 185.96 549.701 173.48 554.181 161C558.661 148.413 560.901 136.947 560.901 126.6C560.901 118.493 559.408 114.44 556.421 114.44ZM639.009 213.32C640.395 213.32 641.462 213.96 642.209 215.24C643.062 216.52 643.489 218.28 643.489 220.52C643.489 224.787 642.475 228.093 640.449 230.44C636.502 235.24 630.902 239.667 623.649 243.72C616.502 247.773 608.822 249.8 600.609 249.8C589.409 249.8 580.715 246.76 574.529 240.68C568.342 234.6 565.249 226.28 565.249 215.72C565.249 208.36 566.795 201.533 569.889 195.24C572.982 188.84 577.249 183.773 582.689 180.04C588.235 176.307 594.475 174.44 601.409 174.44C607.595 174.44 612.555 176.307 616.289 180.04C620.022 183.667 621.889 188.627 621.889 194.92C621.889 202.28 619.222 208.627 613.889 213.96C608.662 219.187 599.755 223.347 587.169 226.44C589.835 231.347 594.902 233.8 602.369 233.8C607.169 233.8 612.609 232.147 618.689 228.84C624.875 225.427 630.209 221 634.689 215.56C635.969 214.067 637.409 213.32 639.009 213.32ZM598.689 190.12C594.742 190.12 591.382 192.413 588.609 197C585.942 201.587 584.609 207.133 584.609 213.64V213.96C590.902 212.467 595.862 210.227 599.489 207.24C603.115 204.253 604.929 200.787 604.929 196.84C604.929 194.813 604.342 193.213 603.169 192.04C602.102 190.76 600.609 190.12 598.689 190.12ZM695.101 196.36C697.448 196.36 699.421 197.213 701.021 198.92C702.728 200.52 703.581 202.547 703.581 205C703.581 206.387 703.261 207.88 702.621 209.48C700.915 213.427 698.515 216.733 695.421 219.4C692.328 222.067 688.915 223.4 685.181 223.4C682.195 223.4 679.635 222.333 677.501 220.2C675.475 218.067 674.461 215.187 674.461 211.56C674.461 209.533 674.568 207.347 674.781 205C674.995 203.293 675.101 202.12 675.101 201.48C675.101 200.627 674.888 199.987 674.461 199.56C674.141 199.133 673.715 198.92 673.181 198.92C671.688 198.92 669.661 200.733 667.101 204.36C664.541 207.88 661.981 212.573 659.421 218.44C656.861 224.307 654.781 230.493 653.181 237C652.008 242.12 650.675 245.533 649.181 247.24C647.688 248.947 645.235 249.8 641.821 249.8C637.768 249.8 634.888 247.667 633.181 243.4C631.581 239.133 630.781 232.307 630.781 222.92C630.781 209.053 632.755 195.88 636.701 183.4C637.661 180.307 639.208 178.067 641.341 176.68C643.581 175.187 646.675 174.44 650.621 174.44C652.755 174.44 654.248 174.707 655.101 175.24C655.955 175.773 656.381 176.787 656.381 178.28C656.381 179.987 655.581 183.827 653.981 189.8C652.915 194.067 652.061 197.8 651.421 201C650.781 204.2 650.248 208.147 649.821 212.84C653.341 203.667 657.288 196.2 661.661 190.44C666.035 184.68 670.301 180.573 674.461 178.12C678.621 175.667 682.408 174.44 685.821 174.44C688.915 174.44 691.261 175.347 692.861 177.16C694.568 178.867 695.421 181.427 695.421 184.84C695.421 186.867 694.835 190.707 693.661 196.36H695.101ZM736.08 189.64C735.867 194.973 735.76 199.133 735.76 202.12C735.76 209.8 736.133 215.827 736.88 220.2C737.733 224.467 739.067 227.56 740.88 229.48C742.8 231.293 745.413 232.2 748.72 232.2C750.427 232.2 752.453 231.667 754.8 230.6C757.147 229.533 759.28 228.147 761.2 226.44C762.373 225.373 763.547 224.84 764.72 224.84C766 224.84 767.013 225.587 767.76 227.08C768.613 228.467 769.04 230.173 769.04 232.2C769.04 234.227 768.613 236.2 767.76 238.12C767.013 240.04 765.84 241.64 764.24 242.92C758.693 247.507 752.4 249.8 745.36 249.8C735.227 249.8 727.813 245.587 723.12 237.16C718.427 228.627 716.08 217.533 716.08 203.88C716.08 199.187 716.24 194.44 716.56 189.64H710.32C707.12 189.64 704.933 189.053 703.76 187.88C702.693 186.707 702.16 184.84 702.16 182.28C702.16 176.307 704.56 173.32 709.36 173.32H718.48C720.293 161.587 723.067 150.867 726.8 141.16C730.533 131.453 735.013 123.72 740.24 117.96C745.573 112.2 751.28 109.32 757.36 109.32C761.84 109.32 765.36 111.293 767.92 115.24C770.48 119.187 771.76 124.147 771.76 130.12C771.76 146.653 764.827 161.053 750.96 173.32H768.88C770.587 173.32 771.813 173.693 772.56 174.44C773.307 175.187 773.68 176.573 773.68 178.6C773.68 185.96 767.653 189.64 755.6 189.64H736.08ZM753.04 124.68C751.44 124.68 749.627 126.707 747.6 130.76C745.68 134.707 743.813 140.253 742 147.4C740.293 154.44 738.853 162.28 737.68 170.92C743.973 165.48 748.667 159.4 751.76 152.68C754.96 145.853 756.56 139.667 756.56 134.12C756.56 127.827 755.387 124.68 753.04 124.68Z" fill="#00C2FF"/>
<g filter="url(#filter0_d)">
<g filter="url(#filter1_d)">
<path d="M280.328 139.211H257.847V118.344H280.328C286.221 118.344 291 123.015 291 128.778C291 134.54 286.223 139.211 280.328 139.211Z" fill="white"/>
<path d="M280.328 128.778H257.849V139.213H280.328C286.221 139.213 291 134.542 291 128.778C291 126.877 290.477 125.097 289.568 123.563C287.723 126.678 284.278 128.778 280.328 128.778Z" fill="#D1D3D4"/>
<path d="M280.328 187.983H257.847V167.116H280.328C286.221 167.116 291 171.786 291 177.548C291 183.312 286.223 187.983 280.328 187.983Z" fill="white"/>
<path d="M280.328 177.55H257.849V187.985H280.328C286.221 187.985 291 183.314 291 177.55C291 175.648 290.477 173.869 289.568 172.333C287.723 175.452 284.278 177.55 280.328 177.55Z" fill="#D1D3D4"/>
<path d="M280.328 236.757H257.847V215.889H280.328C286.221 215.889 291 220.56 291 226.322C291 232.084 286.223 236.757 280.328 236.757Z" fill="white"/>
<path d="M280.328 226.322H257.849V236.756H280.328C286.221 236.756 291 232.086 291 226.322C291 224.42 290.477 222.641 289.568 221.105C287.723 224.223 284.278 226.322 280.328 226.322Z" fill="#D1D3D4"/>
<path d="M63.27 139.211H85.7511V118.344H63.27C57.3772 118.344 52.6001 123.015 52.6001 128.778C52.6001 134.54 57.3772 139.211 63.27 139.211Z" fill="white"/>
<path d="M63.2718 128.778H85.7511V139.213H63.2718C57.379 139.213 52.6001 134.542 52.6001 128.778C52.6001 126.877 53.1226 125.097 54.0316 123.563C55.8767 126.678 59.3221 128.778 63.2718 128.778Z" fill="#D1D3D4"/>
<path d="M63.27 187.983H85.7511V167.116H63.27C57.3772 167.116 52.6001 171.786 52.6001 177.548C52.6001 183.312 57.3772 187.983 63.27 187.983Z" fill="white"/>
<path d="M63.2718 177.55H85.7511V187.985H63.2718C57.379 187.985 52.6001 183.314 52.6001 177.55C52.6001 175.648 53.1226 173.869 54.0316 172.333C55.8767 175.452 59.3221 177.55 63.2718 177.55Z" fill="#D1D3D4"/>
<path d="M63.27 236.757H85.7511V215.889H63.27C57.3772 215.889 52.6001 220.56 52.6001 226.324C52.6001 232.084 57.3772 236.757 63.27 236.757Z" fill="white"/>
<path d="M63.2718 226.322H85.7511V236.756H63.2718C57.379 236.756 52.6001 232.086 52.6001 226.322C52.6001 224.42 53.1226 222.641 54.0316 221.105C55.8767 224.223 59.3221 226.322 63.2718 226.322Z" fill="#D1D3D4"/>
<path d="M132.589 71.4345V93.4141H111.248V71.4345C111.248 65.6726 116.025 61 121.919 61C127.812 61 132.589 65.6709 132.589 71.4345Z" fill="white"/>
<path d="M182.47 71.4345V93.4141H161.128V71.4345C161.128 65.6726 165.905 61 171.798 61C177.693 61 182.47 65.6709 182.47 71.4345Z" fill="white"/>
<path d="M232.352 71.4345V93.4141H211.011V71.4345C211.011 65.6726 215.788 61 221.681 61C227.574 61 232.352 65.6709 232.352 71.4345Z" fill="white"/>
<path d="M132.44 283.667V261.686H111.099V283.667C111.099 289.429 115.876 294.102 121.77 294.102C127.663 294.1 132.44 289.429 132.44 283.667Z" fill="white"/>
<path d="M182.323 283.667V261.686H160.981V283.667C160.981 289.429 165.759 294.102 171.651 294.102C177.544 294.1 182.323 289.429 182.323 283.667Z" fill="white"/>
<path d="M232.352 283.667V261.686H211.011V283.667C211.011 289.429 215.788 294.102 221.683 294.102C227.574 294.1 232.352 289.429 232.352 283.667Z" fill="white"/>
<path d="M241.486 261.686H102.114C93.0772 261.686 85.751 254.523 85.751 245.687V109.414C85.751 100.577 93.0772 93.4141 102.114 93.4141H241.487C250.525 93.4141 257.851 100.577 257.851 109.414V245.688C257.849 254.523 250.523 261.686 241.486 261.686Z" fill="white"/>
<path d="M235.965 248.289H107.635C103.116 248.289 99.4546 244.707 99.4546 240.29V114.812C99.4546 110.393 103.118 106.813 107.635 106.813H235.967C240.486 106.813 244.147 110.395 244.147 114.812V240.29C244.147 244.707 240.484 248.289 235.965 248.289Z" fill="#1CAEE4"/>
<path d="M235.965 106.813H107.633C103.116 106.813 99.4526 110.393 99.4526 114.812V122.811C99.4526 118.392 103.116 114.812 107.633 114.812H235.965C240.482 114.812 244.145 118.392 244.145 122.811V114.812C244.147 110.393 240.484 106.813 235.965 106.813Z" fill="#009ADD"/>
<path d="M111.099 261.686H132.44V274.627H111.099V261.686Z" fill="#D1D3D4"/>
<path d="M160.981 261.686H182.323V274.627H160.981V261.686Z" fill="#D1D3D4"/>
<path d="M210.862 261.686H232.204V274.627H210.862V261.686Z" fill="#D1D3D4"/>
<path d="M111.099 80.4729H132.44V93.414H111.099V80.4729Z" fill="#D1D3D4"/>
<path d="M160.981 80.4729H182.323V93.414H160.981V80.4729Z" fill="#D1D3D4"/>
<path d="M210.862 80.4729H232.204V93.414H210.862V80.4729Z" fill="#D1D3D4"/>
<path d="M171.236 176.09C166.388 176.09 162.458 179.933 162.458 184.673C162.458 189.413 166.388 193.255 171.236 193.255C176.083 193.255 180.013 189.413 180.013 184.673C180.013 179.933 176.083 176.09 171.236 176.09Z" fill="#009ADD"/>
<path d="M226.984 207.835C227.322 201.825 224.645 194.767 219.083 187.284C218.471 186.463 217.831 185.641 217.161 184.823C217.831 184.004 218.471 183.184 219.083 182.363C227.033 171.666 229.089 161.84 224.87 154.698C220.228 146.839 208.763 144.107 194.303 146.211C190.636 137.123 185.667 130.35 179.926 126.972C179.322 122.807 175.663 119.603 171.236 119.603C166.686 119.603 162.943 122.99 162.502 127.325C157.004 130.809 152.246 137.43 148.702 146.211C134.24 144.105 122.776 146.837 118.135 154.698C113.494 162.558 116.809 173.633 125.904 184.825C119.136 193.154 115.569 201.415 116.099 208.337C114.639 209.87 113.744 211.926 113.744 214.186C113.744 218.926 117.674 222.769 122.522 222.769C123.951 222.769 125.301 222.433 126.493 221.841C130.18 223.367 134.687 224.121 139.781 224.121C142.59 224.121 145.576 223.892 148.702 223.436C154.069 236.733 162.221 245.078 171.503 245.078C180.785 245.078 188.938 236.733 194.303 223.436C197.429 223.892 200.415 224.121 203.224 224.121C208.469 224.121 213.092 223.32 216.839 221.703C218.096 222.382 219.54 222.769 221.079 222.769C225.926 222.769 229.856 218.926 229.856 214.186C229.856 211.669 228.748 209.405 226.984 207.835ZM203.316 152.736C210.893 152.736 216.336 154.701 218.468 158.31C221.098 162.766 219.143 169.982 213.101 178.111C212.805 178.508 212.502 178.907 212.19 179.305C208.607 175.668 204.494 172.12 199.965 168.755C199.238 163.181 198.138 157.95 196.721 153.174C199.06 152.879 201.266 152.736 203.316 152.736ZM182.546 203.526C178.803 205.639 175.109 207.484 171.503 209.075C167.896 207.484 164.202 205.639 160.459 203.526C156.716 201.414 153.234 199.207 150.023 196.949C149.629 193.101 149.415 189.049 149.415 184.823C149.415 180.598 149.629 176.546 150.023 172.697C153.234 170.438 156.716 168.231 160.459 166.119C164.202 164.006 167.898 162.161 171.503 160.57C175.108 162.159 178.803 164.006 182.546 166.119C186.209 168.187 189.704 170.39 192.984 172.695C193.378 176.544 193.592 180.596 193.592 184.823C193.592 189.049 193.38 193.101 192.984 196.95C189.704 199.253 186.209 201.458 182.546 203.526ZM191.542 206.638C190.941 209.657 190.224 212.503 189.413 215.153C186.661 214.516 183.784 213.7 180.808 212.698C182.617 211.783 184.431 210.812 186.246 209.789C188.049 208.769 189.816 207.717 191.542 206.638ZM162.199 212.698C159.225 213.698 156.348 214.514 153.594 215.153C152.783 212.505 152.066 209.659 151.465 206.64C153.182 207.713 154.947 208.765 156.761 209.789C158.577 210.812 160.39 211.781 162.199 212.698ZM142.162 190.88C139.789 188.863 137.628 186.833 135.686 184.823C137.626 182.812 139.787 180.784 142.162 178.767C142.069 180.757 142.02 182.778 142.02 184.825C142.02 186.871 142.069 188.891 142.162 190.88ZM151.467 163.007C152.068 159.988 152.783 157.144 153.595 154.494C156.348 155.131 159.225 155.947 162.199 156.949C160.39 157.866 158.577 158.835 156.763 159.858C154.949 160.882 153.184 161.934 151.467 163.007ZM180.808 156.949C183.782 155.947 186.659 155.132 189.412 154.494C190.224 157.144 190.939 159.988 191.54 163.009C189.814 161.929 188.047 160.878 186.244 159.858C184.431 158.835 182.617 157.864 180.808 156.949ZM200.844 178.748C203.191 180.734 205.37 182.767 207.361 184.823C205.372 186.879 203.191 188.912 200.844 190.899C200.938 188.904 200.985 186.878 200.985 184.823C200.985 182.769 200.936 180.743 200.844 178.748ZM165.14 134.357C166.718 135.848 168.868 136.766 171.236 136.766C173.725 136.766 175.971 135.754 177.568 134.127C180.971 136.71 184.239 141.358 186.926 147.644C181.987 148.833 176.804 150.518 171.503 152.688C166.203 150.517 161.02 148.833 156.081 147.644C158.688 141.54 161.845 136.981 165.14 134.357ZM124.537 158.311C126.669 154.701 132.112 152.738 139.689 152.738C141.739 152.738 143.943 152.881 146.282 153.176C144.865 157.951 143.765 163.184 143.038 168.758C138.466 172.161 134.382 175.707 130.86 179.294C124.147 170.681 121.831 162.897 124.537 158.311ZM131.138 215.829C131.243 215.297 131.299 214.749 131.299 214.186C131.299 209.767 127.883 206.129 123.494 205.657C123.91 201.373 126.426 196.044 130.864 190.355C134.386 193.942 138.47 197.488 143.042 200.89C143.769 206.464 144.869 211.696 146.286 216.471C140.199 217.236 135.013 216.984 131.138 215.829ZM171.503 237.848C166.087 237.848 160.35 231.993 156.081 222.002C161.02 220.814 166.203 219.13 171.504 216.959C176.806 219.13 181.989 220.814 186.928 222.002C182.657 231.993 176.92 237.848 171.503 237.848ZM196.721 216.473C198.138 211.697 199.238 206.466 199.965 200.892C204.492 197.527 208.605 193.979 212.188 190.342C212.5 190.74 212.803 191.137 213.099 191.534C217.029 196.823 219.23 201.724 219.564 205.731C215.436 206.432 212.299 209.952 212.299 214.186C212.299 214.687 212.343 215.176 212.428 215.653C208.5 216.959 203.106 217.275 196.721 216.473Z" fill="#009ADD"/>
<path d="M171.503 240.288C154.971 240.288 142.02 213.821 142.02 180.034C142.02 146.247 154.971 119.779 171.503 119.779C188.036 119.779 200.985 146.247 200.985 180.034C200.985 213.821 188.036 240.288 171.503 240.288ZM171.503 127.01C161.056 127.01 149.415 148.785 149.415 180.034C149.415 211.28 161.056 233.058 171.503 233.058C181.949 233.058 193.592 211.282 193.592 180.034C193.592 148.785 181.949 127.01 171.503 127.01Z" fill="white"/>
<path d="M171.503 123.394C157.262 123.394 145.718 148.753 145.718 180.034C145.718 211.314 157.262 236.673 171.503 236.673C185.743 236.673 197.288 211.314 197.288 180.034C197.288 148.753 185.743 123.394 171.503 123.394ZM171.503 233.058C161.056 233.058 149.415 211.282 149.415 180.034C149.415 148.785 161.056 127.01 171.503 127.01C181.949 127.01 193.592 148.785 193.592 180.034C193.592 211.282 181.949 233.058 171.503 233.058Z" fill="#D1D3D4"/>
<path d="M139.781 219.331C129.603 219.331 121.772 216.32 118.135 210.159C109.869 196.161 126.836 171.962 156.763 155.069C186.686 138.175 216.603 135.906 224.872 149.906C229.09 157.048 227.035 166.874 219.085 177.571C211.747 187.445 200.085 197.184 186.246 204.997C169.489 214.458 152.733 219.331 139.781 219.331ZM203.316 147.946C192.325 147.946 176.846 152.081 160.459 161.329C132.783 176.954 119.316 197.697 124.537 206.544C129.763 215.389 154.873 214.358 182.546 198.735C195.508 191.419 206.357 182.393 213.101 173.321C219.143 165.193 221.098 157.976 218.468 153.52C216.336 149.912 210.893 147.946 203.316 147.946Z" fill="white"/>
<path d="M221.67 151.714C214.55 139.656 186.318 142.56 158.612 158.2C130.905 173.841 114.217 196.294 121.337 208.353C128.458 220.411 156.69 217.509 184.395 201.868C212.101 186.227 228.789 163.772 221.67 151.714ZM124.539 206.546C119.315 197.699 132.783 176.954 160.46 161.331C176.845 152.081 192.327 147.948 203.318 147.948C210.894 147.948 216.337 149.913 218.469 153.522C221.1 157.978 219.144 165.194 213.102 173.323C206.36 182.395 195.509 191.421 182.548 198.737C154.872 214.36 129.762 215.391 124.539 206.546Z" fill="#D1D3D4"/>
<path d="M203.224 219.331C190.273 219.331 173.52 214.458 156.763 204.997C126.836 188.104 109.869 163.905 118.135 149.906C126.401 135.906 156.317 138.175 186.246 155.069C200.083 162.881 211.747 172.62 219.085 182.494C227.035 193.191 229.09 203.017 224.872 210.159C221.234 216.32 213.4 219.331 203.224 219.331ZM139.69 147.946C132.112 147.946 126.671 149.91 124.539 153.52C119.316 162.367 132.783 183.112 160.461 198.735C188.14 214.36 213.244 215.391 218.469 206.544C221.1 202.088 219.144 194.871 213.103 186.743C206.361 177.671 195.509 168.645 182.548 161.329C166.165 152.083 150.68 147.946 139.69 147.946Z" fill="white"/>
<path d="M184.395 158.2C156.688 142.558 128.456 139.656 121.337 151.714C114.217 163.772 130.905 186.227 158.612 201.868C186.318 217.509 214.55 220.413 221.67 208.353C228.789 196.294 212.101 173.841 184.395 158.2ZM218.467 206.546C213.242 215.391 188.139 214.362 160.459 198.737C132.783 183.113 119.315 162.368 124.537 153.522C126.669 149.912 132.11 147.948 139.688 147.948C150.679 147.948 166.163 152.083 182.546 161.331C195.507 168.646 206.357 177.674 213.101 186.745C219.142 194.873 221.098 202.089 218.467 206.546Z" fill="#D1D3D4"/>
<path d="M180.013 179.883C180.013 184.623 176.083 188.465 171.236 188.465C166.388 188.465 162.458 184.623 162.458 179.883C162.458 175.143 166.388 171.3 171.236 171.3C176.083 171.3 180.013 175.143 180.013 179.883Z" fill="#FEDE3A"/>
<path d="M171.236 182.611C167.438 182.611 164.205 180.254 162.982 176.956C162.643 177.869 162.458 178.854 162.458 179.883C162.458 184.623 166.388 188.465 171.236 188.465C176.083 188.465 180.013 184.623 180.013 179.883C180.013 178.856 179.828 177.869 179.489 176.956C178.266 180.255 175.033 182.611 171.236 182.611Z" fill="#E7AD27"/>
<path d="M180.013 123.394C180.013 128.134 176.083 131.977 171.236 131.977C166.388 131.977 162.458 128.134 162.458 123.394C162.458 118.654 166.388 114.812 171.236 114.812C176.083 114.812 180.013 118.654 180.013 123.394Z" fill="#FEDE3A"/>
<path d="M171.236 126.123C167.438 126.123 164.205 123.765 162.982 120.467C162.643 121.381 162.458 122.365 162.458 123.394C162.458 128.134 166.388 131.977 171.236 131.977C176.083 131.977 180.013 128.134 180.013 123.394C180.013 122.367 179.828 121.381 179.489 120.467C178.266 123.767 175.033 126.123 171.236 126.123Z" fill="#E7AD27"/>
<path d="M122.522 217.977C127.369 217.977 131.299 214.135 131.299 209.395C131.299 204.655 127.369 200.812 122.522 200.812C117.674 200.812 113.744 204.655 113.744 209.395C113.744 214.135 117.674 217.977 122.522 217.977Z" fill="#FEDE3A"/>
<path d="M122.522 212.125C118.724 212.125 115.491 209.767 114.268 206.469C113.929 207.383 113.744 208.369 113.744 209.396C113.744 214.137 117.674 217.979 122.522 217.979C127.37 217.979 131.299 214.137 131.299 209.396C131.299 208.369 131.114 207.383 130.775 206.469C129.552 209.767 126.317 212.125 122.522 212.125Z" fill="#E7AD27"/>
<path d="M221.078 217.977C225.926 217.977 229.856 214.135 229.856 209.395C229.856 204.655 225.926 200.812 221.078 200.812C216.231 200.812 212.301 204.655 212.301 209.395C212.301 214.135 216.231 217.977 221.078 217.977Z" fill="#FEDE3A"/>
<path d="M221.078 212.125C217.283 212.125 214.048 209.767 212.825 206.469C212.486 207.383 212.301 208.369 212.301 209.396C212.301 214.137 216.231 217.979 221.078 217.979C225.926 217.979 229.856 214.137 229.856 209.396C229.856 208.369 229.671 207.383 229.332 206.469C228.109 209.767 224.874 212.125 221.078 212.125Z" fill="#E7AD27"/>
</g>
</g>
<rect x="15" y="15" width="320" height="320" rx="35" stroke="#081051" stroke-width="30"/>
<path d="M117 387.532C122.986 380.672 121.191 365.735 167.885 359H381.902C383.398 368.667 367.684 388 343.738 388C319.792 388 191.083 387.532 117 387.532Z" fill="#081051" stroke="#081051"/>
<defs>
<filter id="filter0_d" x="50.6001" y="59" width="242.4" height="237.102" filterUnits="userSpaceOnUse" color-interpolation-filters="sRGB">
<feFlood flood-opacity="0" result="BackgroundImageFix"/>
<feColorMatrix in="SourceAlpha" type="matrix" values="0 0 0 0 0 0 0 0 0 0 0 0 0 0 0 0 0 0 127 0"/>
<feOffset/>
<feGaussianBlur stdDeviation="1"/>
<feColorMatrix type="matrix" values="0 0 0 0 0.244792 0 0 0 0 0.450417 0 0 0 0 0.979167 0 0 0 0.1 0"/>
<feBlend mode="normal" in2="BackgroundImageFix" result="effect1_dropShadow"/>
<feBlend mode="normal" in="SourceGraphic" in2="effect1_dropShadow" result="shape"/>
</filter>
<filter id="filter1_d" x="37.6001" y="46" width="268.4" height="263.102" filterUnits="userSpaceOnUse" color-interpolation-filters="sRGB">
<feFlood flood-opacity="0" result="BackgroundImageFix"/>
<feColorMatrix in="SourceAlpha" type="matrix" values="0 0 0 0 0 0 0 0 0 0 0 0 0 0 0 0 0 0 127 0"/>
<feOffset/>
<feGaussianBlur stdDeviation="7.5"/>
<feColorMatrix type="matrix" values="0 0 0 0 0.244792 0 0 0 0 0.450417 0 0 0 0 0.979167 0 0 0 1 0"/>
<feBlend mode="normal" in2="BackgroundImageFix" result="effect1_dropShadow"/>
<feBlend mode="normal" in="SourceGraphic" in2="effect1_dropShadow" result="shape"/>
</filter>
</defs>
</svg>
