<svg id="er8aymwamupe1" xmlns="http://www.w3.org/2000/svg" xmlns:xlink="http://www.w3.org/1999/xlink" viewBox="0 0 100 100" shape-rendering="geometricPrecision" text-rendering="geometricPrecision"><style><![CDATA[#er8aymwamupe2_ts {animation: er8aymwamupe2_ts__ts 2000ms linear infinite normal forwards}@keyframes er8aymwamupe2_ts__ts { 0% {transform: translate(50px,50px) scale(0,0)} 17.500000% {transform: translate(50px,50px) scale(1,1)} 100% {transform: translate(50px,50px) scale(1,1)} }#er8aymwamupe2 {animation: er8aymwamupe2_c_o 2000ms linear infinite normal forwards}@keyframes er8aymwamupe2_c_o { 0% {opacity: 0.260000} 17.500000% {opacity: 1} 100% {opacity: 1} }#er8aymwamupe3_ts {animation: er8aymwamupe3_ts__ts 2000ms linear infinite normal forwards}@keyframes er8aymwamupe3_ts__ts { 0% {transform: translate(50px,50px) scale(0,0)} 18% {transform: translate(50px,50px) scale(0,0)} 22.500000% {transform: translate(50px,50px) scale(1,1)} 28.500000% {transform: translate(50px,50px) scale(0.500000,0.500000)} 35.500000% {transform: translate(50px,50px) scale(0.770000,0.770000)} 41.500000% {transform: translate(50px,50px) scale(1,1)} 100% {transform: translate(50px,50px) scale(1,1)} }]]></style><g id="er8aymwamupe2_ts" transform="translate(50,50) scale(0,0)"><circle id="er8aymwamupe2" r="40" transform="translate(0,0)" opacity="0.26" fill="none" stroke="rgb(247,23,38)" stroke-width="8" stroke-linecap="round" stroke-miterlimit="10" stroke-dasharray="0"/></g><g id="er8aymwamupe3_ts" transform="translate(50,50) scale(0,0)"><path id="er8aymwamupe3" d="M63.900000,29L50,42.900000L36.100000,29C34.100000,27,30.900000,27,29,29C27.100000,31,27,34.200000,29,36.100000L42.900000,50L29,63.900000C27,65.900000,27,69.100000,29,71C31,73,34.200000,73,36.100000,71L50,57.100000L63.900000,71C65.900000,73,69.100000,73,71,71C73,69,73,65.800000,71,63.900000L57.100000,50L71,36.100000C73,34.100000,73,30.900000,71,29C69.100000,27,65.900000,27,63.900000,29Z" transform="translate(-50,-50)" fill="rgb(247,23,38)" stroke="none" stroke-width="1"/></g></svg>