<svg id="edsurwwa5jec1" xmlns="http://www.w3.org/2000/svg" xmlns:xlink="http://www.w3.org/1999/xlink" viewBox="0 0 100 100" shape-rendering="geometricPrecision" text-rendering="geometricPrecision"><style><![CDATA[#edsurwwa5jec3_ts {animation: edsurwwa5jec3_ts__ts 2000ms linear infinite normal forwards}@keyframes edsurwwa5jec3_ts__ts { 0% {transform: translate(50px,50px) scale(0,0)} 17% {transform: translate(50px,50px) scale(1,1)} 100% {transform: translate(50px,50px) scale(1,1)} }#edsurwwa5jec4_ts {animation: edsurwwa5jec4_ts__ts 2000ms linear infinite normal forwards}@keyframes edsurwwa5jec4_ts__ts { 0% {transform: translate(50.550000px,34px) scale(0,0)} 18% {transform: translate(50.550000px,34px) scale(0,0)} 24.500000% {transform: translate(50.550000px,34px) scale(1,1)} 29% {transform: translate(50.550000px,34px) scale(0.900000,0.900000)} 36% {transform: translate(50.550000px,34px) scale(1,1)} 100% {transform: translate(50.550000px,34px) scale(1,1)} }#edsurwwa5jec5_ts {animation: edsurwwa5jec5_ts__ts 2000ms linear infinite normal forwards}@keyframes edsurwwa5jec5_ts__ts { 0% {transform: translate(51.100000px,57.650000px) scale(0,0)} 18% {transform: translate(51.100000px,57.650000px) scale(0,0)} 24.500000% {transform: translate(51.100000px,57.650000px) scale(1,1)} 29% {transform: translate(51.100000px,57.650000px) scale(0.900000,0.900000)} 36% {transform: translate(51.100000px,57.650000px) scale(1,1)} 100% {transform: translate(51.100000px,57.650000px) scale(1,1)} }]]></style><g id="edsurwwa5jec2"><g id="edsurwwa5jec3_ts" transform="translate(50,50) scale(0,0)"><circle id="edsurwwa5jec3" r="38" transform="translate(0,0)" fill="rgb(12,136,220)" stroke="rgb(12,136,220)" stroke-width="8" stroke-miterlimit="10"/></g><g id="edsurwwa5jec4_ts" transform="translate(50.550000,34) scale(0,0)"><path id="edsurwwa5jec4" d="M54.900000,28.400000L46.200000,28.400000C45.200000,28.400000,44.400000,29.200000,44.400000,30.200000L44.400000,37.800000C44.400000,38.800000,45.200000,39.600000,46.200000,39.600000L54.900000,39.600000C55.900000,39.600000,56.700000,38.800000,56.700000,37.800000L56.700000,30.200000C56.700000,29.200000,55.900000,28.400000,54.900000,28.400000Z" transform="translate(-50.550000,-34)" fill="rgb(255,255,255)" stroke="none" stroke-width="1"/></g><g id="edsurwwa5jec5_ts" transform="translate(51.100000,57.650000) scale(0,0)"><path id="edsurwwa5jec5" d="M56.700000,63L56.700000,45.400000C56.700000,44.400000,55.900000,43.600000,54.900000,43.600000L42.700000,43.600000C41.700000,43.600000,40.900000,44.400000,40.900000,45.400000L40.900000,50C40.900000,51,41.700000,51.800000,42.700000,51.800000L45.600000,51.800000L45.600000,63L42.700000,63C41.700000,63,40.900000,63.800000,40.900000,64.800000L40.900000,69.900000C40.900000,70.900000,41.700000,71.700000,42.700000,71.700000L59.500000,71.700000C60.500000,71.700000,61.300000,70.900000,61.300000,69.900000L61.300000,64.800000C61.300000,63.800000,60.500000,63,59.500000,63L56.700000,63Z" transform="translate(-51.100000,-57.650000)" fill="rgb(255,255,255)" stroke="none" stroke-width="1"/></g></g></svg>