<svg id="eu7d5yeq6dhb1" xmlns="http://www.w3.org/2000/svg" xmlns:xlink="http://www.w3.org/1999/xlink" viewBox="0 0 100 100" shape-rendering="geometricPrecision" text-rendering="geometricPrecision"><style><![CDATA[#eu7d5yeq6dhb3_ts {animation: eu7d5yeq6dhb3_ts__ts 2000ms linear infinite normal forwards}@keyframes eu7d5yeq6dhb3_ts__ts { 0% {transform: translate(49.999792px,50.000125px) scale(0,0)} 19% {transform: translate(49.999792px,50.000125px) scale(1,1)} 100% {transform: translate(49.999792px,50.000125px) scale(1,1)} }#eu7d5yeq6dhb5_ts {animation: eu7d5yeq6dhb5_ts__ts 2000ms linear infinite normal forwards}@keyframes eu7d5yeq6dhb5_ts__ts { 0% {transform: translate(49.994694px,71.293131px) scale(0,0)} 20% {transform: translate(49.994694px,71.293131px) scale(0,0)} 25.500000% {transform: translate(49.994694px,71.293131px) scale(1,1)} 31% {transform: translate(49.994694px,71.293131px) scale(0.900000,0.900000)} 36% {transform: translate(49.994694px,71.293131px) scale(1,1)} 100% {transform: translate(49.994694px,71.293131px) scale(1,1)} }#eu7d5yeq6dhb6_ts {animation: eu7d5yeq6dhb6_ts__ts 2000ms linear infinite normal forwards}@keyframes eu7d5yeq6dhb6_ts__ts { 0% {transform: translate(50px,48.214933px) scale(0,0)} 20% {transform: translate(50px,48.214933px) scale(0,0)} 25.500000% {transform: translate(50px,48.214933px) scale(1,1)} 31% {transform: translate(50px,48.214933px) scale(0.900000,0.900000)} 36% {transform: translate(50px,48.214933px) scale(1,1)} 100% {transform: translate(50px,48.214933px) scale(1,1)} }]]></style><defs><linearGradient id="eu7d5yeq6dhb3-fill" x1="36.618000" y1="37.807000" x2="51.618000" y2="85.807000" spreadMethod="pad" gradientUnits="userSpaceOnUse"><stop id="eu7d5yeq6dhb3-fill-0" offset="0%" stop-color="rgb(249,32,45)"/><stop id="eu7d5yeq6dhb3-fill-1" offset="100%" stop-color="rgb(218,20,34)"/></linearGradient></defs><g id="eu7d5yeq6dhb2" transform="matrix(1.08289855100247 0 0 1.05848997055134 -4.14470034447134 -2.92462874167980)"><g id="eu7d5yeq6dhb3_ts" transform="translate(49.999792,50.000125) scale(0,0)"><path id="eu7d5yeq6dhb3" d="M44.859000,16.397000L9.485000,77.667000C7.200000,81.624000,10.056000,86.571000,14.626000,86.571000L85.374000,86.571000C89.944000,86.571000,92.799000,81.624000,90.515000,77.667000L55.141000,16.397000C52.856000,12.440000,47.144000,12.440000,44.859000,16.397000Z" transform="translate(-49.999792,-50.000125)" fill="url(#eu7d5yeq6dhb3-fill)" stroke="rgb(255,255,255)" stroke-width="3.500000" stroke-opacity="0" stroke-miterlimit="10"/></g><g id="eu7d5yeq6dhb4"><g id="eu7d5yeq6dhb5_ts" transform="translate(49.994694,71.293131) scale(0,0)"><path id="eu7d5yeq6dhb5" d="M53.400000,68.511000L54,72.417000C54.286038,74.598956,52.776559,76.609731,50.601493,76.944147C48.426426,77.278564,46.382630,75.814105,46,73.647000C45.939490,73.239568,45.939490,72.825432,46,72.418000L46.600000,68.512000C46.857925,66.833817,48.301683,65.594817,49.999571,65.594568C51.697459,65.594318,53.141582,66.832893,53.400000,68.511000Z" transform="translate(-49.994694,-71.293131)" fill="rgb(255,255,255)" stroke="none" stroke-width="1"/></g><g id="eu7d5yeq6dhb6_ts" transform="translate(50,48.214933) scale(0,0)"><path id="eu7d5yeq6dhb6" d="M54,40.417000L52.800000,57.697000C52.696011,59.166711,51.473385,60.305886,50,60.305886C48.526615,60.305886,47.303989,59.166711,47.200000,57.697000L46,40.417000C45.894110,38.920425,46.632504,37.489927,47.913795,36.709386C49.195085,35.928845,50.804915,35.928845,52.086205,36.709386C53.367496,37.489927,54.105890,38.920425,54,40.417000Z" transform="translate(-50,-48.214933)" fill="rgb(255,255,255)" stroke="none" stroke-width="1"/></g></g></g></svg>